<?xml version="1.0" encoding="utf-8"?>
<!-- Generator: Adobe Illustrator 23.0.4, SVG Export Plug-In . SVG Version: 6.00 Build 0)  -->
<svg version="1.1" id="Layer_1" xmlns="http://www.w3.org/2000/svg" xmlns:xlink="http://www.w3.org/1999/xlink" x="0px" y="0px"
	 viewBox="0 0 772.9 583.2" style="enable-background:new 0 0 772.9 583.2;" xml:space="preserve">
<style type="text/css">
	.st0{fill:#FFFFFF;stroke:#000000;stroke-miterlimit:10;}
	.st1{fill:none;stroke:#000000;stroke-width:16;stroke-miterlimit:10;}
</style>
<g id="Layer_1-2">
	<rect class="st0" width="772.9" height="583.2"/>
	<path d="M487.9,241.8v74.4c0,27.3-1.4,47.3-4.1,60c-2.7,12.8-8.6,24.6-17.6,35.7c-9,11.1-20.5,19.2-34.6,24.5
		c-14.1,5.3-30.3,7.9-48.6,7.9c-24.5,0-37.6,0.2-51.9-6.7c-26.5-13-37-40.4-40.5-51.1c-7,12.5-14.4,25.2-22.1,38.1
		c-3.5,5.7-6.9,11.4-10.4,16.9c29.7-56.8,59.4-113.6,89.1-170.5c-28.3-0.5-56.7-1.1-85-1.7c4.1-14.6,5.6-20.6,6.2-23.1
		c0.1-0.3,0.4-1.6,0.8-3.4c0.8-3.2,1.5-5.1,3.5-13.4c2.5-10.3,2.5-11.5,4.9-21.2c0.7-2.7,2.1-8.4,4.3-15.6c1.5-4.9,2.2-7.4,3.4-10.4
		c6.1-15.9,17.1-28.6,32.9-38.2s36.1-14.4,60.9-14.4c20.8,0,38.5,3.1,53.4,9.3c14.9,6.2,26.3,14.2,34.4,24.1
		c8.1,9.9,13.6,20.1,16.6,30.6S488,220.3,487.9,241.8L487.9,241.8z M395.5,218.9c0-15.6-0.9-25.3-2.5-29.4c-1.7-4-5.3-6.1-10.8-6.1
		s-9.1,2-11,6.1c-1.8,4-2.7,13.8-2.7,29.4V356c0,14.3,0.9,23.7,2.7,28c1.9,4.4,5.4,6.5,10.8,6.5s9.1-2,10.9-6
		c1.8-4,2.6-12.5,2.6-25.6L395.5,218.9L395.5,218.9z"/>
	<path d="M172,371.1c24.2-0.2,31.4-0.3,37.8-0.5c16.2-0.5,29.6-1.4,38.8-2c-6.6,22-13.3,43.9-19.9,65.8
		c-76.3-0.3-152.5-0.6-228.8-0.9c0-18.3,0.1-36.5,0.1-54.8l115-175.5c-13,0-26.1-0.1-39.1-0.1c-25-0.1-49.9-0.1-74.9-0.2
		C1.4,182.6,1.7,162.3,2,142c87.8-0.1,175.5-0.1,263.3-0.2c-9.8,17.4-19.7,34.8-29.9,52.3c-35.9,61.7-72.3,120.7-109.1,177.1
		C141.4,371.3,156.6,371.2,172,371.1L172,371.1z"/>
	<path class="st1" d="M318.6,51c-65.7,107.5-131.3,215-197,322.5c20.1-0.4,40.5-0.7,61.2-0.8c20.7-0.1,41,0.1,61.1,0.4
		c-12.1,51.6-24.1,103.2-36.2,154.8c47.2-86.3,94.5-172.6,141.7-259c-29.6,0.3-59.1,0.6-88.7,0.9C280,196.8,299.3,123.9,318.6,51
		L318.6,51z"/>
	<path d="M703.7,142.5c23-0.1,46-0.2,69-0.3c-0.2,0.1-0.5,0.3-0.7,0.5h0.6c0.1,96.5,0.2,193,0.3,289.5c-29.5,0.1-59.1,0.1-88.6,0.2
		L574.9,264.1v107.1c0.1,0,0.2,0,0.2,0.1c0,20.5-0.1,41.1-0.2,61.6c-23,0-45.9,0-68.9,0c0,0,0-0.1,0-0.2c0-0.2-0.2-0.3-0.2-0.3
		c0,0,0,0,0.2,0.2c0,0.1,0.1,0.2,0.2,0.3c0.1-96.5,0.1-193.1,0.2-289.6c32.9-0.4,65.8-0.9,98.7-1.3l98.2,149.7c0,0.1,0,0.1-0.1,0.2
		v-0.2C703.4,242,703.5,192.2,703.7,142.5L703.7,142.5z"/>
</g>
</svg>
