<?xml version="1.0" encoding="UTF-8"?><svg id="Layer_2" xmlns="http://www.w3.org/2000/svg" viewBox="0 0 772.89 583.2"><defs><style>.cls-1{fill:none;stroke:#000;stroke-miterlimit:10;stroke-width:16px;}</style></defs><g id="Layer_1-2"><path d="m487.93,241.81v74.37c0,27.28-1.37,47.3-4.13,60.03-2.73,12.76-8.6,24.64-17.62,35.7-8.99,11.06-20.54,19.23-34.63,24.49-14.13,5.26-30.32,7.9-48.64,7.9-24.52,0-37.63.24-51.92-6.74-26.47-12.96-37.02-40.41-40.46-51.1-6.98,12.52-14.35,25.22-22.12,38.07-3.46,5.73-6.93,11.36-10.41,16.92,29.71-56.83,59.43-113.65,89.14-170.48-28.33-.55-56.67-1.11-85-1.66,4.11-14.65,5.63-20.59,6.18-23.06.08-.34.35-1.63.78-3.38.82-3.24,1.51-5.13,3.5-13.35,2.49-10.27,2.48-11.51,4.93-21.19.69-2.73,2.15-8.42,4.31-15.6,1.46-4.88,2.25-7.35,3.41-10.38,6.11-15.89,17.07-28.62,32.93-38.22,15.86-9.6,36.15-14.4,60.85-14.4,20.75,0,38.55,3.07,53.44,9.27,14.86,6.17,26.34,14.22,34.42,24.12,8.08,9.9,13.61,20.14,16.59,30.65,2.98,10.51,4.47,26.55,4.47,48.03Zm-92.42-22.86c0-15.55-.85-25.34-2.52-29.38-1.7-4.04-5.26-6.08-10.75-6.08s-9.14,2.04-11,6.08c-1.82,4.04-2.73,13.82-2.73,29.38v137.05c0,14.34.91,23.67,2.73,28.01,1.85,4.37,5.44,6.53,10.75,6.53s9.11-1.97,10.88-5.95c1.76-3.95,2.64-12.49,2.64-25.61v-140.02Z"/><path d="m172.02,371.12c24.21-.19,31.37-.29,37.85-.49,16.2-.5,29.57-1.35,38.8-2.03-6.63,21.95-13.26,43.9-19.89,65.84-76.26-.31-152.52-.62-228.78-.94.03-18.26.06-36.53.1-54.79l114.99-175.48c-13.03-.02-26.06-.05-39.08-.06-24.96-.08-49.91-.14-74.87-.21.27-20.31.54-40.63.82-60.94,87.77-.08,175.54-.14,263.3-.21-9.75,17.36-19.72,34.82-29.9,52.33-35.85,61.69-72.33,120.7-109.09,177.1,15.12.05,30.37,0,45.75-.12Z"/><path class="cls-1" d="m318.59,50.97c-65.66,107.49-131.31,214.98-196.97,322.47,20.08-.44,40.5-.7,61.25-.77,20.68-.07,41.03.06,61.05.37-12.07,51.6-24.15,103.21-36.22,154.81,47.24-86.33,94.48-172.64,141.73-258.97-29.57.29-59.14.58-88.72.87,19.29-72.93,38.59-145.86,57.88-218.78Z"/><path d="m703.7,142.53c22.99-.09,45.98-.18,68.97-.27-.22.15-.45.32-.67.47h.58c.1,96.5.21,192.99.31,289.5-29.54.06-59.08.14-88.62.2l-109.4-168.37v107.15c.08.02.15.05.22.06-.05,20.55-.11,41.09-.16,61.64-22.96-.02-45.91-.02-68.87-.03,0-.05.01-.11,0-.17-.03-.18-.17-.32-.16-.32,0,0,.04.03.16.17.05.11.11.21.16.32.06-96.52.13-193.05.19-289.57,32.91-.44,65.81-.88,98.71-1.32l98.16,149.69c-.03.06-.05.12-.08.18v-.17c.16-49.72.33-99.44.49-149.15Z"/></g></svg>