<svg id="Layer_1" data-name="Layer 1" xmlns="http://www.w3.org/2000/svg" xmlns:xlink="http://www.w3.org/1999/xlink" viewBox="0 0 812.51 861.54"><defs><style>.cls-1{fill:url(#linear-gradient);}.cls-2{fill:url(#linear-gradient-2);}.cls-3{fill:url(#linear-gradient-3);}.cls-4{fill:url(#linear-gradient-4);}.cls-5{fill:url(#linear-gradient-5);}.cls-6{fill:url(#linear-gradient-6);}.cls-7{fill:url(#linear-gradient-7);}.cls-8{fill:url(#linear-gradient-8);}.cls-9{fill:#f2f7fa;}.cls-10{fill:#fff;}</style><linearGradient id="linear-gradient" x1="907.02" y1="645.22" x2="907.02" y2="168.25" gradientTransform="matrix(1, -0.1, 0.1, 1, -343.99, -15.34)" gradientUnits="userSpaceOnUse"><stop offset="0.03" stop-color="#01c9fe"/><stop offset="0.48" stop-color="#0c92ff"/><stop offset="0.53" stop-color="#0d8cff"/><stop offset="0.89" stop-color="#0f84ff"/></linearGradient><linearGradient id="linear-gradient-2" x1="538.06" y1="591.6" x2="538.06" y2="255.27" xlink:href="#linear-gradient"/><linearGradient id="linear-gradient-3" x1="719.39" y1="572.14" x2="719.39" y2="216.66" xlink:href="#linear-gradient"/><linearGradient id="linear-gradient-4" x1="550.65" y1="935.26" x2="550.65" y2="543.18" gradientUnits="userSpaceOnUse"><stop offset="0" stop-color="#f89705"/><stop offset="0.57" stop-color="#f2e500"/></linearGradient><linearGradient id="linear-gradient-5" x1="550.65" y1="881.92" x2="550.65" y2="558.09" xlink:href="#linear-gradient-4"/><linearGradient id="linear-gradient-6" x1="345.65" y1="863.86" x2="345.65" y2="501.39" xlink:href="#linear-gradient-4"/><linearGradient id="linear-gradient-7" x1="231.44" y1="763.23" x2="231.44" y2="532.93" xlink:href="#linear-gradient-4"/><linearGradient id="linear-gradient-8" x1="853.09" y1="615.98" x2="853.09" y2="236.72" xlink:href="#linear-gradient"/></defs><path class="cls-1" d="M841.48,395.73c-.41-4.29-.42-8.67-1.31-12.85-2.84-13.35-5.6-26.73-9.16-39.89s-8.14-26.31-12.25-39.46c-1-3.16-7.85-24.56-12-31.43-5.77-9.5-10.52-19.65-17.39-28.46-8-10.23-15.86-20.58-24.37-30.36-4.66-5.35-10.3-10-15.93-14.33-11.31-8.79-22.53-17.76-34.47-25.6C696.64,161.58,678,151,658,142.83c-15.58-6.38-31.18-12.63-47.31-17.44-26.15-7.79-52.48-14.66-79.69-18-21.71-2.67-43.35-2.36-65-.82-7.79.55-15.67,1.07-23.26,2.76-10.57,2.35-20.93,5.71-31.35,8.77-8,2.35-16,4.73-23.9,7.4-11.16,3.75-22.26,7.69-33.33,11.72-13.48,4.92-25.44,13-38.54,18.74-6.54,2.86-13.11,5.65-19.77,8.24a12.8,12.8,0,0,1-5.84.6c-5.82-.67-9-5.19-7.28-10.8a19.59,19.59,0,0,1,4.06-7.15,37.83,37.83,0,0,1,7.81-6.69c7.69-4.92,15.82-9.19,23.33-14.36,11.36-7.82,24.11-12.62,36.63-18,13.41-5.77,27.27-10.17,41.24-14.33,11.41-3.4,22.66-7.38,34.11-10.65a168.15,168.15,0,0,1,21.34-4.6c30.15-4.51,45.3-4.43,58.57-4.5,64.91,2.5,75.06,4.44,88.48,7.1,9,1.77,17.87,3.22,26.64,5.93,6.83,2.11,13.76,3.86,20.61,5.93A342.47,342.47,0,0,1,718.77,125c28.94,16.82,55,37.46,80,59.43,9.31,8.18,17.49,17.74,25.6,27.17,8.29,9.65,17.6,22.46,24,31,9.36,12.52,17.33,27.44,24,41.38A351.71,351.71,0,0,1,888,323c7.66,22.48,14.58,45.34,17.63,69,1.17,9.06,1.89,13.1,3.93,27.08,2.46,13.07,3.32,26.3,3.94,39.55.35,7.54.41,15.1.28,22.65-.3,18.6-13.56,31.64-29.78,33.08a23.29,23.29,0,0,0-3.51.64c-12.91,3.36-24.19.22-33.74-8.84-5.38-5.11-10.39-10.61-15.43-16.05-4.86-5.25-9.54-10.67-14.3-16-.36-.4-.73-.78-1.06-1.19-8.1-10.31-16.23-20.6-24.28-30.95-3.57-4.6-7-9.31-10.46-14a472.52,472.52,0,0,1-31.77-49c-8.75-15.73-16.33-32.11-24.37-48.23-2.7-5.43-5.25-10.93-7.87-16.4l-.85.1c-.31,3.57-.64,7.14-.94,10.71-1.55,18.08-3.2,36.16-4.62,54.26-2,25.49-3.84,51-5.73,76.5-.71,9.46-2.5,18.67-6.89,27.16a33.29,33.29,0,0,1-5.3,7.86c-8,8.31-20.31,7.74-27.57-1.16a33.62,33.62,0,0,1-3.92-6.42,90.42,90.42,0,0,1-8.27-27.68,245.24,245.24,0,0,1-1.87-38.49c.26-14.18.56-28.36,1.22-42.52.63-13.37,1.69-26.71,2.67-40.06,1.36-18.5,2.48-37,4.32-55.48a292,292,0,0,1,13.15-60.89,43.13,43.13,0,0,1,6.59-13.07,31.29,31.29,0,0,1,47.51-3.07,49.91,49.91,0,0,1,9,13c8.15,16.22,16.1,32.54,24.38,48.69,12.34,24,24.52,48.18,37.47,71.9A285.1,285.1,0,0,0,841.48,395.73Z" transform="translate(-101.28 -73.72)"/><path class="cls-2" d="M250.21,274c-.67.54-1.35,1.05-2,1.6-15.65,13.54-32.87,26.27-49.28,38.9-13.94,10.73-26.68,21.91-29.81,24.76a23.72,23.72,0,0,1-10.63,6c-7.39,1.71-13.6-2-15.44-9.36a23.51,23.51,0,0,1,1.88-16.64,48.64,48.64,0,0,1,5.58-8.66c6.08-7.53,12.4-14.86,18.57-22.31,4-4.9,8-9.9,12-14.8,15.57-18.87,32.29-36.57,52.21-51,20.12-14.53,41.25-27.33,63.95-37.53a97.07,97.07,0,0,1,36.09-8.58c18.83-.79,32.93,16.93,28.19,35.74a47.59,47.59,0,0,1-5.17,12,224.51,224.51,0,0,1-19.05,27.4c-4.21,5.28-8.14,10.8-12.16,16.23C313.11,284,301.25,300.44,289,316.56c-16.9,22.14-33.18,44.69-48.33,68.07-9,13.9-18.17,27.71-27.25,41.56-.72,1.1-1.32,2.27-2.37,4.09,4.77-1.67,8.87-3,12.93-4.53,19.3-7.05,38.95-13,58.76-18.34,7.4-2,14.92-3.6,22.45-5.12a33.27,33.27,0,0,1,18,1.12,27,27,0,0,1,11.68,43.28,45.66,45.66,0,0,1-7.67,6.88c-8.9,6.64-18.94,11.06-29.39,14.63-25.43,8.7-50.73,17.79-75.51,28.2-12.79,5.37-25,12.11-37.48,18.22-8.68,4.25-17.37,8.46-26,12.72a40.17,40.17,0,0,1-12.5,3.76c-2.09.28-4.17.73-6.24,1.19-12,2.67-22.47-.32-30.64-9.51s-10.15-20.07-6-31.55a120.38,120.38,0,0,1,9.08-18.53c4.46-7.81,9.42-15.34,14.2-23,7.73-12.36,15.56-24.66,23.2-37.08,14-22.81,29.28-44.79,45.18-66.37,16-21.78,33.23-42.66,49.57-64.2,2-2.59,4-5.11,6-7.67Z" transform="translate(-101.28 -73.72)"/><path class="cls-3" d="M466.4,148.32c.81,10.42-.81,20.62-3.13,30.71-1.13,4.9-2.44,9.78-4,14.57-9.75,30.15-17.52,60.84-25.44,91.5-3.16,12.22-4.64,24.72-6.49,37.17-2.85,19.26-6.1,38.46-9,57.71A359.82,359.82,0,0,0,414,446.53a88.14,88.14,0,0,1-.35,13.89c-1.62,13-8.11,22.7-20.63,27.36A30.37,30.37,0,0,1,352.6,463.9c-.89-5.71-.57-11.62-.78-17.44-.9-25.27,1.49-50.31,5.6-75.2,4.16-25.22,8.34-50.44,12.91-75.59a250,250,0,0,1,7.14-29.32c6.95-22.39,14.34-44.65,21.7-66.92a283.17,283.17,0,0,1,19.23-44,97.15,97.15,0,0,1,13.91-19.8c3.41-3.76,7.16-7.09,12.23-8.51a15.33,15.33,0,0,1,18.09,7.16C465.23,138.57,466.07,143.38,466.4,148.32Z" transform="translate(-101.28 -73.72)"/><path class="cls-4" d="M218,762.78a30.47,30.47,0,0,1,5.45,0c7.66,1.55,14.66,4.4,20.38,10,2.13,2.1,4.85,3.6,7.25,5.43,5.17,3.93,10.58,7.59,15.39,11.9,12.64,11.31,23.47,24.74,37.36,34.56,13.56,9.58,36.54,24.58,49.7,32.77A112,112,0,0,0,365,863.79c7.42,3.5,15,6.66,22.46,10.1,13.31,6.16,27.34,9.89,41.6,13,12.55,2.76,25.1,5.45,37.89,6.82,7.5.8,15,1.63,22.57,1.85,14.3.43,66.68-3.21,78.86-5.06,14.13-2.14,28.93-6,42.8-9.35,14.63-3.53,29.14-7.86,42.95-14.1,1.33-.6,2.65-1.22,4-1.71,19-6.81,36.1-17.08,52.73-28.31,6.69-4.52,13.59-8.78,20.66-12.67a286.09,286.09,0,0,0,53.19-38.17c8.06-7.24,17.41-14.7,22.79-24.4,2.25-4,3.81-6.12,6.6-11.73a76.6,76.6,0,0,0,7.19-24c1-7.12.68-14.28-3.63-20.68-4-5.94-9.85-8-16.47-7.49-7.64.64-14.92,2.89-22.2,5.64C765.28,708.76,752,715,738.23,720.2c-9.2,3.47-18.66,6-28.67,5.7-11.73-.3-22.85-2.75-33-8.87-3.74-2.26-7.6-4.34-11.2-6.81a46.8,46.8,0,0,1-17.05-21.51c-2-4.92-3.79-9.9-5.61-14.88-3.85-10.57-3.26-21.43-1.5-32.22a158.45,158.45,0,0,1,4.61-19.69,83.07,83.07,0,0,1,16.42-30.19,187.14,187.14,0,0,1,30.28-29.19c13.2-9.89,27.88-16.42,44.16-18.76,6.75-1,13.74-.52,20.61-.28a69.15,69.15,0,0,1,28.2,7.54c5.94,2.93,12.06,5.47,18.12,8.13,14.68,6.44,23.61,17.64,27,33.17,2.6,12-3.19,23.67-13.77,28.5-5.82,2.67-11.82,2.54-17.86.78a14.19,14.19,0,0,1-3.68-1.45c-5.89-3.8-12.65-5.28-19.14-7.54-5.37-1.87-10.57-4.23-15.83-6.41a28.24,28.24,0,0,0-19-1,39.74,39.74,0,0,0-13,6.67,122.7,122.7,0,0,0-19.67,19c-5,5.86-6.83,13-8.16,20.42a17,17,0,0,0,1.06,9.67,9,9,0,0,0,10.81,5.57c3.93-1.14,7.78-2.61,11.58-4.13,8.73-3.48,17.4-7.08,26.1-10.62,3-1.2,6-2.27,8.84-3.57a92.56,92.56,0,0,1,26.69-7.44c3.54-.44,7.05-1.2,10.6-1.65a69.23,69.23,0,0,1,26.8,1.76c4.85,1.3,9.75,2.48,14.58,3.86,7.55,2.14,13.91,6.26,19.71,11.52C870.81,668.69,878,684.3,881.12,702c2,11.51,3.09,25.06,1.1,36.48-2.47,14.22-8.33,30.83-13.84,39.36-5.38,8.33-11,16.57-16.82,24.57a145.62,145.62,0,0,1-12.32,14.52C820,837.1,797.86,853.7,774,868a305.45,305.45,0,0,1-57.09,26.8c-12.5,4.32-24.7,9.58-37.34,13.46Q653,916.41,625.72,922c-14.69,3-29.45,5.38-44.33,7-13.29,1.47-26.61,2.72-39.91,4.07-6.85.69-13.69,1.64-20.55,2-10.21.57-20.38-.57-30.55-1.43-22.56-1.9-44.38-7.33-66.07-13.46a58.61,58.61,0,0,1-7.86-2.77c-14.49-6.49-29-13-43.4-19.66-7.69-3.56-15.28-7.33-22.79-11.24A135.64,135.64,0,0,1,338,879.2c-13-8.66-25.93-17.48-38.94-26.15-6.45-4.3-12-9.57-17.43-15-7.38-7.42-14.67-15-22.47-21.92a238.18,238.18,0,0,1-23.56-24.73c-5.27-6.28-9.9-13.1-14.71-19.75A14.35,14.35,0,0,1,218,762.78Z" transform="translate(-101.28 -73.72)"/><path class="cls-5" d="M654,756.89a188.13,188.13,0,0,0-10.15-35.47,82.47,82.47,0,0,0-18-27.43c-4.18-4.26-8.46-8.43-12.72-12.59-7.94-7.79-16.83-14.11-27.33-18-.86-.33-1.67-.74-2.77-1.24.2-.78.24-1.16.38-1.51,6.06-14,6.16-28.39,2.89-42.88-3.67-16.36-11.77-30.59-22.32-43.44a44.81,44.81,0,0,0-8.51-7.69c-9.07-6.55-19.49-9-30.45-8.46-8.59.4-17.14,1.56-25.69,2.62-15,1.86-26.2,9.64-34.52,22.21-6.5,9.83-9.77,20.81-12.32,32.07-4.66,20.51-6.31,41.39-6.56,62.35-.38,34.27,1.45,68.38,7.52,102.16,2.82,15.66,6.42,31.14,12.68,45.87,5.13,12.09,12,23,21.88,31.86a103.51,103.51,0,0,0,37.64,21.56,60,60,0,0,0,23.52,2.88c6.2-.49,12.42-1.08,18.57-1.92,15.87-2.16,29.85-8.28,40.65-20.45,7.64-8.62,15.16-17.38,22.34-26.4a160.69,160.69,0,0,0,12.32-18C653.67,797,657.85,777.74,654,756.89ZM505.29,599.38a12.36,12.36,0,0,1,2.79-1.11c5.88-.85,11.76-1.79,17.66-2.31a9,9,0,0,1,9.42,5.22c3.83,7.42,8.41,14.47,10,22.84,1.65,8.62.36,16.4-5.56,23.42a170.77,170.77,0,0,1-17.38,18,9.48,9.48,0,0,1-1.58,1.19c-4,2.24-8.12,4.45-12.95,7.09C508,648.53,509.45,623.9,505.29,599.38Zm95.26,168.74a37.09,37.09,0,0,1-5.87,15.9c-7.6,12.06-17.13,22.55-27.27,32.52a9.68,9.68,0,0,1-6,2.75c-4.74.5-9.5.9-14.24,1.26a6.7,6.7,0,0,1-2.75-.31c-8.86-3.13-16.55-7.73-20.68-16.75-3.34-7.26-5.31-15-7-22.74a355.88,355.88,0,0,1-7.64-57c-.07-1.05,0-2.11,0-3.69,5.07,1.8,9.73,2.86,14.51,1.48,7-2,14.11-4.21,19.25-9.75,4.55-4.91,10.22-6,16.27-5.61a23,23,0,0,1,13.09,5.33c8.36,6.9,16.51,14.14,21.87,23.84a9.44,9.44,0,0,1,.73,1.41C598.16,746.92,601.69,757.11,600.55,768.12Z" transform="translate(-101.28 -73.72)"/><path class="cls-6" d="M434.13,815c-.91-9.89-2.12-19.75-2.91-29.67-.72-9-1-18-1.53-27-.65-11-1.16-22-2-32.94-1.27-16.38-2.82-32.73-4.19-49.12a698.13,698.13,0,0,0-11.26-81c-4.43-21.74-11.73-42.36-23.7-61.16a84.65,84.65,0,0,0-20.18-22.29c-23-17.4-50.93-10.73-66.72,4.16a100.65,100.65,0,0,0-18.36,23.86c-8.49,15.05-13.75,31.26-17.34,48.05a480.08,480.08,0,0,0-9.23,59.25c-.81,9.35-1,18.81.47,28.18.93,5.72,2.85,11,6.68,15.47,8,9.29,21.06,9.22,28.58-.43a36.22,36.22,0,0,0,5.2-10.17c1.48-4.23,2.19-8.72,3.25-13.08s2.14-8.69,3.19-12.92c7,2,13.58,4,20.23,5.67,10.15,2.62,20.35,5.08,31.58,2.5.23,2,.44,3.54.56,5.1.22,3,.36,6.08.58,9.12,1.11,16.27,2.44,32.52,3.35,48.79,1.14,20.64,2,41.29,2.94,62,0,.4.05.78.08,1.18,1.23,12.14,2.35,24.28,3.71,36.39.75,6.56,1.56,13.15,4.45,19.27,6.6,13.94,21.22,21.89,35.82,19.28a33.45,33.45,0,0,0,27.84-32.19C435.38,825.79,434.65,820.35,434.13,815ZM353.52,614.78c-12.74-4.29-25.72-5.64-39.22-6.93,4.81-19.44,9.07-38.66,22.92-54.41,1.36,1.38,2.55,2.39,3.53,3.58,6,7.46,9.07,16.1,10.07,25.51,1,9.75,1.82,19.52,2.7,29.28C353.59,612.69,353.52,613.6,353.52,614.78Z" transform="translate(-101.28 -73.72)"/><path class="cls-7" d="M264.38,763.23c-4.86-.68-9.79-1-14.56-2.12-8.42-1.9-16.9-3.74-25.06-6.5-21.56-7.29-36.9-21.42-44.31-43.19-4.19-12.31-8.62-24.62-10.41-37.61-1.09-7.89-1.8-15.85-2.78-23.76-2.08-16.8-2.36-33.71-2.66-50.58-.27-15.56.32-31.13,3.47-46.48.94-4.59,2.22-9.07,5.08-12.88,4.07-5.44,9.35-8.22,16.28-6.82,5.09,1,8.45,4.27,10.69,8.79a32.39,32.39,0,0,1,3,13.14c.82,18.09,2.85,36.06,5.32,54,.84,6,1.15,12.18,1.65,18.28.78,9.56,2.6,18.94,4.44,28.34a58.7,58.7,0,0,0,5.89,17.23c3.38,6.18,6.51,12.5,9.5,18.89a10,10,0,0,0,7,6c6.07,1.46,12.2,2.68,18.26,4.16,7.22,1.76,14.47,3.43,21.56,5.63,5.54,1.72,10.12,5.27,14.1,9.49,12.44,13.2,9,33.18-7.12,41.43A41.45,41.45,0,0,1,264.38,763.23Z" transform="translate(-101.28 -73.72)"/><path class="cls-8" d="M645.7,223.82c-1.18-7.72-2.24-15.46-3.56-23.17a132.81,132.81,0,0,0-2.95-13.19c-3-10.86-9-20.25-14.67-29.85-10.74-18.12-37.65-27.46-57.48-21.68-15.4,4.49-30,10.52-43.17,19.66-14.17,9.82-27,21-36.16,35.85A173.58,173.58,0,0,0,470,228.7c-9.9,30.52-18.26,61.43-23.2,93.19a254.29,254.29,0,0,0-3.08,42.75c.17,13.55,0,27,.39,40.56.22,8.73.67,17.45,2.66,26.06,1.91,8.11,3.57,16.33,4.91,24.55a66.78,66.78,0,0,0,12.12,29.26,61.11,61.11,0,0,0,5.19,6.34c1.55,1.68,3.17,3.28,4.88,4.85a92.41,92.41,0,0,0,9.23,7.27c7.58,5.22,16.13,8.55,24.72,11.72,21.71,8,41.63,4.38,60-9.25,1.6-1.21,3.17-2.42,4.77-3.59.17-.14.37-.29.53-.43,1.83-1.37,3.6-2.8,5.28-4.29,2-1.74,3.93-3.5,5.75-5.36a80.89,80.89,0,0,0,19.64-31.16,38.7,38.7,0,0,1,3-6.48,185.79,185.79,0,0,0,19.69-53.08c8.42-41.18,14-82.78,18.12-124.58C646.26,259.33,647.75,241.63,645.7,223.82Z" transform="translate(-101.28 -73.72)"/><path class="cls-9" d="M625,324c-1,8-6.56,13.25-15.18,13.19-9.12-.11-18.24-1.76-27.32-3.12-5.19-.74-10.24-2.38-15.44-3.25C562.5,330,559.64,332,560,337c.78,10.38-3.23,17.32-11.87,21.29a36,36,0,0,1-3.4,1.32,47.08,47.08,0,0,0-8.54,4.36c-3.26,1.89-5.6,4.25-2.42,8.46-10.25-5.56-10.95-12.23-1.53-17.18.09,0,.14-.1.23-.12,10.13-5.19,11.64-14.21.75-22.54-5.2-4-11-7.14-16.13-11.26-7-5.69-6.35-11.06,2-14.28,5.7-2.18,12-2.82,18.1-3.88,5.16-.9,10.62-.73,15.54-2.35a12.48,12.48,0,0,0,6.89-6.9c1.31-4.23-1.74-7.54-5.81-9.07-5.83-2.17-11.78-3.93-17.63-6-14.83-5.3-24.64-14.72-25.72-31.45a23.11,23.11,0,0,0-2.44-9.18c-4.43-8.14-2-15,3.36-21.28,8.39-9.93,19.63-14.11,32.29-15.21,9.73-.86,19.53-1.25,29.19-2.68,9.09-1.32,12.55-5.56,11.91-12.77-.64-7.58-7.52-14.35-15.1-14-2.61.09-5.63,1.86-7.55,3.75-.88.92.38,4,.69,6,1.43-.23,3.12-.08,4.26-.78,3.7-2.23,6.34-.72,8,2.33,1.88,3.54.7,6.63-3.1,8.33-4.76,2.11-13-.69-16-5.32a12.64,12.64,0,0,1,2-16c4.91-4.42,10.8-5.18,17-3.84,17.68,3.8,35.82,24.46,37.63,42.41,1,9.23-2.07,16.92-10.45,20.64A147.67,147.67,0,0,1,575,238.47c-8.81,2-15.81,5.95-20.46,13.61-5,8.22-2.86,15.43,6.26,18.38a178.66,178.66,0,0,0,27.43,6.47c19.45,2.88,29.94,15.28,35.73,32.61A33.5,33.5,0,0,1,625,324Z" transform="translate(-101.28 -73.72)"/><path class="cls-10" d="M552,445.57c-.93-.53-1.49-1-1.38-2.21.67-7.19,1.24-14.37,1.91-21.58a2.94,2.94,0,0,1,1.09-1.85c4.24-3.17,5.92-7.46,4.6-12.2-1.26-4.46-5.07-7.44-10.21-7.88-5.3-.48-10.57-.93-15.88-1.38-5.49-.48-11-1-16.46-1.4a10.79,10.79,0,0,0-11,6.28c-1.94,4.32-1,8.92,2.46,12.49a3.15,3.15,0,0,1,.82,2.18c-.54,7.24-1.15,14.51-1.85,21.74a2.17,2.17,0,0,1-1.27,1.6,58.88,58.88,0,0,0-22.86,13.38c-9.37,8.78-15.48,18.91-18.18,30.33a61.11,61.11,0,0,0,5.19,6.34c2.13-15.93,10.8-28.73,25.22-38.29a50.32,50.32,0,0,1,16-6.79c1.18-.31,1.71-.76,1.82-2.05q1.18-14.73,2.53-29.4a2.24,2.24,0,0,0-1.55-2.69c-2.52-1.07-3.53-3.14-2.94-5.5s2.55-3.59,5.27-3.39c5.45.45,10.86.92,16.27,1.4l15.68,1.35c3.06.25,4.86,1.76,5.14,4.18s-1.15,4.34-4.13,5.1a1.89,1.89,0,0,0-1.65,2c-.81,9.85-1.63,19.72-2.55,29.6-.14,1.37.36,1.9,1.51,2.44,19.92,9.53,31.08,25.33,32.68,47.35,0,.31,0,.62.06.95,2-1.74,3.93-3.5,5.75-5.36C581.43,471.55,570.55,456,552,445.57Z" transform="translate(-101.28 -73.72)"/><path class="cls-10" d="M567.88,477.49a3,3,0,0,0-2.86-1.85c-13.07-1.09-26.14-2.24-39.22-3.36v0c-13.07-1.13-26.14-2.22-39.21-3.4a3.3,3.3,0,0,0-3.43,1.54A50.19,50.19,0,0,0,474,494c-.08.76-.17,1.48-.2,2.24a92.41,92.41,0,0,0,9.23,7.27c7.58,5.22,16.13,8.55,24.72,11.72,21.71,8,41.63,4.38,60-9.25,1.6-1.21,3.17-2.42,4.77-3.59.17-.14.37-.29.53-.43A49.73,49.73,0,0,0,567.88,477.49ZM533.46,510.2a4.41,4.41,0,0,1,.62-8.8,4.41,4.41,0,1,1-.62,8.8Zm15.26-11.69a5.77,5.77,0,1,1,6.29-5.19A5.87,5.87,0,0,1,548.72,498.51Z" transform="translate(-101.28 -73.72)"/></svg>